<svg xmlns="http://www.w3.org/2000/svg" width="1024" height="1024" viewBox="0 0 1024 1024"><defs>
<clipPath id="sq"><path d="M 1024.00,512.00 L 1023.93,631.24 L 1023.72,669.32 L 1023.37,696.98 L 1022.88,719.47 L 1022.24,738.75 L 1021.47,755.78 L 1020.55,771.13 L 1019.49,785.16 L 1018.29,798.12 L 1016.95,810.17 L 1015.46,821.46 L 1013.83,832.08 L 1012.04,842.12 L 1010.12,851.63 L 1008.04,860.66 L 1005.81,869.27 L 1003.43,877.48 L 1000.90,885.33 L 998.22,892.83 L 995.37,900.02 L 992.37,906.92 L 989.21,913.53 L 985.88,919.87 L 982.38,925.96 L 978.72,931.81 L 974.88,937.42 L 970.87,942.81 L 966.67,947.99 L 962.29,952.96 L 957.72,957.72 L 952.96,962.29 L 947.99,966.67 L 942.81,970.87 L 937.42,974.88 L 931.81,978.72 L 925.96,982.38 L 919.87,985.88 L 913.53,989.21 L 906.92,992.37 L 900.02,995.37 L 892.83,998.22 L 885.33,1000.90 L 877.48,1003.43 L 869.27,1005.81 L 860.66,1008.04 L 851.63,1010.12 L 842.12,1012.04 L 832.08,1013.83 L 821.46,1015.46 L 810.17,1016.95 L 798.12,1018.29 L 785.16,1019.49 L 771.13,1020.55 L 755.78,1021.47 L 738.75,1022.24 L 719.47,1022.88 L 696.98,1023.37 L 669.32,1023.72 L 631.24,1023.93 L 512.00,1024.00 L 392.76,1023.93 L 354.68,1023.72 L 327.02,1023.37 L 304.53,1022.88 L 285.25,1022.24 L 268.22,1021.47 L 252.87,1020.55 L 238.84,1019.49 L 225.88,1018.29 L 213.83,1016.95 L 202.54,1015.46 L 191.92,1013.83 L 181.88,1012.04 L 172.37,1010.12 L 163.34,1008.04 L 154.73,1005.81 L 146.52,1003.43 L 138.67,1000.90 L 131.17,998.22 L 123.98,995.37 L 117.08,992.37 L 110.47,989.21 L 104.13,985.88 L 98.04,982.38 L 92.19,978.72 L 86.58,974.88 L 81.19,970.87 L 76.01,966.67 L 71.04,962.29 L 66.28,957.72 L 61.71,952.96 L 57.33,947.99 L 53.13,942.81 L 49.12,937.42 L 45.28,931.81 L 41.62,925.96 L 38.12,919.87 L 34.79,913.53 L 31.63,906.92 L 28.63,900.02 L 25.78,892.83 L 23.10,885.33 L 20.57,877.48 L 18.19,869.27 L 15.96,860.66 L 13.88,851.63 L 11.96,842.12 L 10.17,832.08 L 8.54,821.46 L 7.05,810.17 L 5.71,798.12 L 4.51,785.16 L 3.45,771.13 L 2.53,755.78 L 1.76,738.75 L 1.12,719.47 L 0.63,696.98 L 0.28,669.32 L 0.07,631.24 L 0.00,512.00 L 0.07,392.76 L 0.28,354.68 L 0.63,327.02 L 1.12,304.53 L 1.76,285.25 L 2.53,268.22 L 3.45,252.87 L 4.51,238.84 L 5.71,225.88 L 7.05,213.83 L 8.54,202.54 L 10.17,191.92 L 11.96,181.88 L 13.88,172.37 L 15.96,163.34 L 18.19,154.73 L 20.57,146.52 L 23.10,138.67 L 25.78,131.17 L 28.63,123.98 L 31.63,117.08 L 34.79,110.47 L 38.12,104.13 L 41.62,98.04 L 45.28,92.19 L 49.12,86.58 L 53.13,81.19 L 57.33,76.01 L 61.71,71.04 L 66.28,66.28 L 71.04,61.71 L 76.01,57.33 L 81.19,53.13 L 86.58,49.12 L 92.19,45.28 L 98.04,41.62 L 104.13,38.12 L 110.47,34.79 L 117.08,31.63 L 123.98,28.63 L 131.17,25.78 L 138.67,23.10 L 146.52,20.57 L 154.73,18.19 L 163.34,15.96 L 172.37,13.88 L 181.88,11.96 L 191.92,10.17 L 202.54,8.54 L 213.83,7.05 L 225.88,5.71 L 238.84,4.51 L 252.87,3.45 L 268.22,2.53 L 285.25,1.76 L 304.53,1.12 L 327.02,0.63 L 354.68,0.28 L 392.76,0.07 L 512.00,0.00 L 631.24,0.07 L 669.32,0.28 L 696.98,0.63 L 719.47,1.12 L 738.75,1.76 L 755.78,2.53 L 771.13,3.45 L 785.16,4.51 L 798.12,5.71 L 810.17,7.05 L 821.46,8.54 L 832.08,10.17 L 842.12,11.96 L 851.63,13.88 L 860.66,15.96 L 869.27,18.19 L 877.48,20.57 L 885.33,23.10 L 892.83,25.78 L 900.02,28.63 L 906.92,31.63 L 913.53,34.79 L 919.87,38.12 L 925.96,41.62 L 931.81,45.28 L 937.42,49.12 L 942.81,53.13 L 947.99,57.33 L 952.96,61.71 L 957.72,66.28 L 962.29,71.04 L 966.67,76.01 L 970.87,81.19 L 974.88,86.58 L 978.72,92.19 L 982.38,98.04 L 985.88,104.13 L 989.21,110.47 L 992.37,117.08 L 995.37,123.98 L 998.22,131.17 L 1000.90,138.67 L 1003.43,146.52 L 1005.81,154.73 L 1008.04,163.34 L 1010.12,172.37 L 1012.04,181.88 L 1013.83,191.92 L 1015.46,202.54 L 1016.95,213.83 L 1018.29,225.88 L 1019.49,238.84 L 1020.55,252.87 L 1021.47,268.22 L 1022.24,285.25 L 1022.88,304.53 L 1023.37,327.02 L 1023.72,354.68 L 1023.93,392.76 L 1024.00,512.00 Z"/></clipPath>
<linearGradient id="bg" x1="0" y1="0" x2="0" y2="1"><stop offset="0" stop-color="#fbf9f6"/><stop offset="0.55" stop-color="#f8f5f0"/><stop offset="1" stop-color="#f1ede6"/></linearGradient>
<linearGradient id="globalLight" x1="0" y1="0" x2="0" y2="1"><stop offset="0" stop-color="#ffffff" stop-opacity="0.26"/><stop offset="0.40" stop-color="#ffffff" stop-opacity="0.0"/><stop offset="0.68" stop-color="#c9b794" stop-opacity="0.0"/><stop offset="1" stop-color="#c9b794" stop-opacity="0.32"/></linearGradient>
<linearGradient id="cardg" x1="0" y1="0" x2="0" y2="1"><stop offset="0" stop-color="#ffffff"/><stop offset="1" stop-color="#fbfaf8"/></linearGradient>
<filter id="cardsh" x="-50%" y="-50%" width="200%" height="200%"><feDropShadow dx="0" dy="18" stdDeviation="22" flood-color="#3a2f1c" flood-opacity="0.40"/></filter>
</defs><path d="M 1024.00,512.00 L 1023.93,631.24 L 1023.72,669.32 L 1023.37,696.98 L 1022.88,719.47 L 1022.24,738.75 L 1021.47,755.78 L 1020.55,771.13 L 1019.49,785.16 L 1018.29,798.12 L 1016.95,810.17 L 1015.46,821.46 L 1013.83,832.08 L 1012.04,842.12 L 1010.12,851.63 L 1008.04,860.66 L 1005.81,869.27 L 1003.43,877.48 L 1000.90,885.33 L 998.22,892.83 L 995.37,900.02 L 992.37,906.92 L 989.21,913.53 L 985.88,919.87 L 982.38,925.96 L 978.72,931.81 L 974.88,937.42 L 970.87,942.81 L 966.67,947.99 L 962.29,952.96 L 957.72,957.72 L 952.96,962.29 L 947.99,966.67 L 942.81,970.87 L 937.42,974.88 L 931.81,978.72 L 925.96,982.38 L 919.87,985.88 L 913.53,989.21 L 906.92,992.37 L 900.02,995.37 L 892.83,998.22 L 885.33,1000.90 L 877.48,1003.43 L 869.27,1005.81 L 860.66,1008.04 L 851.63,1010.12 L 842.12,1012.04 L 832.08,1013.83 L 821.46,1015.46 L 810.17,1016.95 L 798.12,1018.29 L 785.16,1019.49 L 771.13,1020.55 L 755.78,1021.47 L 738.75,1022.24 L 719.47,1022.88 L 696.98,1023.37 L 669.32,1023.72 L 631.24,1023.93 L 512.00,1024.00 L 392.76,1023.93 L 354.68,1023.72 L 327.02,1023.37 L 304.53,1022.88 L 285.25,1022.24 L 268.22,1021.47 L 252.87,1020.55 L 238.84,1019.49 L 225.88,1018.29 L 213.83,1016.95 L 202.54,1015.46 L 191.92,1013.83 L 181.88,1012.04 L 172.37,1010.12 L 163.34,1008.04 L 154.73,1005.81 L 146.52,1003.43 L 138.67,1000.90 L 131.17,998.22 L 123.98,995.37 L 117.08,992.37 L 110.47,989.21 L 104.13,985.88 L 98.04,982.38 L 92.19,978.72 L 86.58,974.88 L 81.19,970.87 L 76.01,966.67 L 71.04,962.29 L 66.28,957.72 L 61.71,952.96 L 57.33,947.99 L 53.13,942.81 L 49.12,937.42 L 45.28,931.81 L 41.62,925.96 L 38.12,919.87 L 34.79,913.53 L 31.63,906.92 L 28.63,900.02 L 25.78,892.83 L 23.10,885.33 L 20.57,877.48 L 18.19,869.27 L 15.96,860.66 L 13.88,851.63 L 11.96,842.12 L 10.17,832.08 L 8.54,821.46 L 7.05,810.17 L 5.71,798.12 L 4.51,785.16 L 3.45,771.13 L 2.53,755.78 L 1.76,738.75 L 1.12,719.47 L 0.63,696.98 L 0.28,669.32 L 0.07,631.24 L 0.00,512.00 L 0.07,392.76 L 0.28,354.68 L 0.63,327.02 L 1.12,304.53 L 1.76,285.25 L 2.53,268.22 L 3.45,252.87 L 4.51,238.84 L 5.71,225.88 L 7.05,213.83 L 8.54,202.54 L 10.17,191.92 L 11.96,181.88 L 13.88,172.37 L 15.96,163.34 L 18.19,154.73 L 20.57,146.52 L 23.10,138.67 L 25.78,131.17 L 28.63,123.98 L 31.63,117.08 L 34.79,110.47 L 38.12,104.13 L 41.62,98.04 L 45.28,92.19 L 49.12,86.58 L 53.13,81.19 L 57.33,76.01 L 61.71,71.04 L 66.28,66.28 L 71.04,61.71 L 76.01,57.33 L 81.19,53.13 L 86.58,49.12 L 92.19,45.28 L 98.04,41.62 L 104.13,38.12 L 110.47,34.79 L 117.08,31.63 L 123.98,28.63 L 131.17,25.78 L 138.67,23.10 L 146.52,20.57 L 154.73,18.19 L 163.34,15.96 L 172.37,13.88 L 181.88,11.96 L 191.92,10.17 L 202.54,8.54 L 213.83,7.05 L 225.88,5.71 L 238.84,4.51 L 252.87,3.45 L 268.22,2.53 L 285.25,1.76 L 304.53,1.12 L 327.02,0.63 L 354.68,0.28 L 392.76,0.07 L 512.00,0.00 L 631.24,0.07 L 669.32,0.28 L 696.98,0.63 L 719.47,1.12 L 738.75,1.76 L 755.78,2.53 L 771.13,3.45 L 785.16,4.51 L 798.12,5.71 L 810.17,7.05 L 821.46,8.54 L 832.08,10.17 L 842.12,11.96 L 851.63,13.88 L 860.66,15.96 L 869.27,18.19 L 877.48,20.57 L 885.33,23.10 L 892.83,25.78 L 900.02,28.63 L 906.92,31.63 L 913.53,34.79 L 919.87,38.12 L 925.96,41.62 L 931.81,45.28 L 937.42,49.12 L 942.81,53.13 L 947.99,57.33 L 952.96,61.71 L 957.72,66.28 L 962.29,71.04 L 966.67,76.01 L 970.87,81.19 L 974.88,86.58 L 978.72,92.19 L 982.38,98.04 L 985.88,104.13 L 989.21,110.47 L 992.37,117.08 L 995.37,123.98 L 998.22,131.17 L 1000.90,138.67 L 1003.43,146.52 L 1005.81,154.73 L 1008.04,163.34 L 1010.12,172.37 L 1012.04,181.88 L 1013.83,191.92 L 1015.46,202.54 L 1016.95,213.83 L 1018.29,225.88 L 1019.49,238.84 L 1020.55,252.87 L 1021.47,268.22 L 1022.24,285.25 L 1022.88,304.53 L 1023.37,327.02 L 1023.72,354.68 L 1023.93,392.76 L 1024.00,512.00 Z" fill="url(#bg)"/><g clip-path="url(#sq)"><g transform="rotate(-10 322 592)" filter="url(#cardsh)"><rect x="107.0" y="268.0" width="430" height="648" rx="26" fill="#ffffff" stroke="#2a2c30" stroke-width="3.5"/><rect x="141.0" y="302.0" width="124" height="42" rx="9" fill="#d6d3cb"/><rect x="141.0" y="854.0" width="162" height="15" rx="7" fill="#2a2c30" opacity="0.12"/><path d="M 442.28,564.22 L 478.31,584.92 L 478.31,631.08 L 442.28,651.78 L 442.28,651.78 L 456.57,690.79 L 426.90,726.15 L 386.00,718.85 L 386.00,718.85 L 371.87,757.92 L 326.41,765.94 L 299.77,734.06 L 299.77,734.06 L 263.84,754.90 L 223.86,731.82 L 223.95,690.28 L 223.95,690.28 L 183.02,683.15 L 167.23,639.77 L 194.00,608.00 L 194.00,608.00 L 167.23,576.23 L 183.02,532.85 L 223.95,525.72 L 223.95,525.72 L 223.86,484.18 L 263.84,461.10 L 299.77,481.94 L 299.77,481.94 L 326.41,450.06 L 371.87,458.08 L 386.00,497.15 L 386.00,497.15 L 426.90,489.85 L 456.57,525.21 L 442.28,564.22 Z M 262.00,608.00 C 262.00,574.86 288.86,548.00 322.00,548.00 C 355.14,548.00 382.00,574.86 382.00,608.00 C 382.00,641.14 355.14,668.00 322.00,668.00 C 288.86,668.00 262.00,641.14 262.00,608.00 Z" fill="#2a2c30" fill-rule="evenodd"/></g><g transform="rotate(10 700 438)" filter="url(#cardsh)"><rect x="485.0" y="114.0" width="430" height="648" rx="26" fill="#ffffff" stroke="#2a2c30" stroke-width="3.5"/><rect x="519.0" y="148.0" width="124" height="42" rx="9" fill="#dce7de"/><rect x="519.0" y="700.0" width="162" height="15" rx="7" fill="#2a2c30" opacity="0.12"/><g><path d="M 566.00,368.00 L 568.23,369.96 L 570.47,371.90 L 572.70,373.81 L 574.93,375.67 L 577.17,377.47 L 579.40,379.20 L 581.63,380.84 L 583.87,382.38 L 586.10,383.80 L 588.33,385.10 L 590.57,386.26 L 592.80,387.28 L 595.03,388.14 L 597.27,388.85 L 599.50,389.39 L 601.73,389.76 L 603.97,389.96 L 606.20,389.99 L 608.43,389.84 L 610.67,389.52 L 612.90,389.03 L 615.13,388.37 L 617.37,387.55 L 619.60,386.58 L 621.83,385.45 L 624.07,384.19 L 626.30,382.81 L 628.53,381.30 L 630.77,379.69 L 633.00,377.99 L 635.23,376.21 L 637.47,374.36 L 639.70,372.46 L 641.93,370.53 L 644.17,368.58 L 646.40,366.62 L 648.63,364.67 L 650.87,362.75 L 653.10,360.87 L 655.33,359.05 L 657.57,357.30 L 659.80,355.63 L 662.03,354.07 L 664.27,352.61 L 666.50,351.27 L 668.73,350.07 L 670.97,349.01 L 673.20,348.09 L 675.43,347.34 L 677.67,346.75 L 679.90,346.33 L 682.13,346.08 L 684.37,346.00 L 686.60,346.10 L 688.83,346.37 L 691.07,346.81 L 693.30,347.42 L 695.53,348.19 L 697.77,349.12 L 700.00,350.20 L 702.23,351.42 L 704.47,352.77 L 706.70,354.24 L 708.93,355.83 L 711.17,357.50 L 713.40,359.26 L 715.63,361.09 L 717.87,362.98 L 720.10,364.90 L 722.33,366.85 L 724.57,368.81 L 726.80,370.76 L 729.03,372.69 L 731.27,374.58 L 733.50,376.42 L 735.73,378.19 L 737.97,379.89 L 740.20,381.48 L 742.43,382.98 L 744.67,384.35 L 746.90,385.59 L 749.13,386.70 L 751.37,387.65 L 753.60,388.46 L 755.83,389.09 L 758.07,389.57 L 760.30,389.87 L 762.53,390.00 L 764.77,389.95 L 767.00,389.73 L 769.23,389.34 L 771.47,388.78 L 773.70,388.05 L 775.93,387.17 L 778.17,386.13 L 780.40,384.95 L 782.63,383.64 L 784.87,382.20 L 787.10,380.65 L 789.33,379.00 L 791.57,377.26 L 793.80,375.45 L 796.03,373.58 L 798.27,371.67 L 800.50,369.73 L 802.73,367.77 L 804.97,365.81 L 807.20,363.88 L 809.43,361.97 L 811.67,360.12 L 813.90,358.32 L 816.13,356.60 L 818.37,354.98 L 820.60,353.45 L 822.83,352.04 L 825.07,350.76 L 827.30,349.61 L 829.53,348.61 L 831.77,347.76 L 834.00,347.08" fill="none" stroke="#7fa888" stroke-width="32" stroke-linecap="round"/><path d="M 566.00,469.78 L 568.23,471.08 L 570.47,472.25 L 572.70,473.27 L 574.93,474.13 L 577.17,474.84 L 579.40,475.39 L 581.63,475.76 L 583.87,475.96 L 586.10,475.99 L 588.33,475.84 L 590.57,475.52 L 592.80,475.03 L 595.03,474.38 L 597.27,473.56 L 599.50,472.59 L 601.73,471.47 L 603.97,470.21 L 606.20,468.82 L 608.43,467.32 L 610.67,465.71 L 612.90,464.01 L 615.13,462.23 L 617.37,460.38 L 619.60,458.49 L 621.83,456.55 L 624.07,454.60 L 626.30,452.64 L 628.53,450.70 L 630.77,448.78 L 633.00,446.90 L 635.23,445.07 L 637.47,443.32 L 639.70,441.65 L 641.93,440.08 L 644.17,438.62 L 646.40,437.29 L 648.63,436.08 L 650.87,435.02 L 653.10,434.10 L 655.33,433.35 L 657.57,432.76 L 659.80,432.33 L 662.03,432.08 L 664.27,432.00 L 666.50,432.10 L 668.73,432.36 L 670.97,432.80 L 673.20,433.41 L 675.43,434.18 L 677.67,435.11 L 679.90,436.19 L 682.13,437.41 L 684.37,438.76 L 686.60,440.23 L 688.83,441.81 L 691.07,443.48 L 693.30,445.24 L 695.53,447.07 L 697.77,448.95 L 700.00,450.88 L 702.23,452.82 L 704.47,454.78 L 706.70,456.73 L 708.93,458.66 L 711.17,460.56 L 713.40,462.40 L 715.63,464.17 L 717.87,465.86 L 720.10,467.46 L 722.33,468.96 L 724.57,470.33 L 726.80,471.58 L 729.03,472.68 L 731.27,473.64 L 733.50,474.45 L 735.73,475.09 L 737.97,475.56 L 740.20,475.86 L 742.43,475.99 L 744.67,475.95 L 746.90,475.73 L 749.13,475.34 L 751.37,474.78 L 753.60,474.06 L 755.83,473.18 L 758.07,472.14 L 760.30,470.97 L 762.53,469.65 L 764.77,468.22 L 767.00,466.67 L 769.23,465.02 L 771.47,463.28 L 773.70,461.48 L 775.93,459.61 L 778.17,457.69 L 780.40,455.75 L 782.63,453.79 L 784.87,451.84 L 787.10,449.90 L 789.33,448.00 L 791.57,446.14 L 793.80,444.34 L 796.03,442.62 L 798.27,441.00 L 800.50,439.47 L 802.73,438.06 L 804.97,436.77 L 807.20,435.63 L 809.43,434.62 L 811.67,433.77 L 813.90,433.08 L 816.13,432.56 L 818.37,432.21 L 820.60,432.03 L 822.83,432.02 L 825.07,432.19 L 827.30,432.52 L 829.53,433.03 L 831.77,433.71 L 834.00,434.55" fill="none" stroke="#658c6e" stroke-width="30" stroke-linecap="round"/><path d="M 566.00,561.99 L 568.23,561.85 L 570.47,561.53 L 572.70,561.04 L 574.93,560.39 L 577.17,559.57 L 579.40,558.60 L 581.63,557.48 L 583.87,556.23 L 586.10,554.84 L 588.33,553.34 L 590.57,551.73 L 592.80,550.03 L 595.03,548.25 L 597.27,546.41 L 599.50,544.51 L 601.73,542.58 L 603.97,540.62 L 606.20,538.67 L 608.43,536.72 L 610.67,534.80 L 612.90,532.92 L 615.13,531.10 L 617.37,529.34 L 619.60,527.67 L 621.83,526.10 L 624.07,524.64 L 626.30,523.30 L 628.53,522.10 L 630.77,521.03 L 633.00,520.11 L 635.23,519.36 L 637.47,518.76 L 639.70,518.34 L 641.93,518.08 L 644.17,518.00 L 646.40,518.09 L 648.63,518.36 L 650.87,518.80 L 653.10,519.40 L 655.33,520.17 L 657.57,521.10 L 659.80,522.17 L 662.03,523.39 L 664.27,524.74 L 666.50,526.21 L 668.73,527.78 L 670.97,529.46 L 673.20,531.22 L 675.43,533.05 L 677.67,534.93 L 679.90,536.85 L 682.13,538.80 L 684.37,540.76 L 686.60,542.71 L 688.83,544.64 L 691.07,546.53 L 693.30,548.37 L 695.53,550.15 L 697.77,551.84 L 700.00,553.45 L 702.23,554.94 L 704.47,556.32 L 706.70,557.56 L 708.93,558.67 L 711.17,559.63 L 713.40,560.44 L 715.63,561.08 L 717.87,561.56 L 720.10,561.86 L 722.33,561.99 L 724.57,561.95 L 726.80,561.74 L 729.03,561.35 L 731.27,560.79 L 733.50,560.07 L 735.73,559.19 L 737.97,558.16 L 740.20,556.98 L 742.43,555.67 L 744.67,554.24 L 746.90,552.69 L 749.13,551.04 L 751.37,549.31 L 753.60,547.50 L 755.83,545.63 L 758.07,543.72 L 760.30,541.77 L 762.53,539.82 L 764.77,537.86 L 767.00,535.93 L 769.23,534.02 L 771.47,532.16 L 773.70,530.37 L 775.93,528.65 L 778.17,527.01 L 780.40,525.49 L 782.63,524.08 L 784.87,522.79 L 787.10,521.64 L 789.33,520.63 L 791.57,519.78 L 793.80,519.09 L 796.03,518.57 L 798.27,518.21 L 800.50,518.03 L 802.73,518.02 L 804.97,518.18 L 807.20,518.52 L 809.43,519.03 L 811.67,519.70 L 813.90,520.53 L 816.13,521.52 L 818.37,522.66 L 820.60,523.93 L 822.83,525.33 L 825.07,526.84 L 827.30,528.46 L 829.53,530.17 L 831.77,531.96 L 834.00,533.82" fill="none" stroke="#a7c6ad" stroke-width="28" stroke-linecap="round"/></g></g><path d="M 1024.00,512.00 L 1023.93,631.24 L 1023.72,669.32 L 1023.37,696.98 L 1022.88,719.47 L 1022.24,738.75 L 1021.47,755.78 L 1020.55,771.13 L 1019.49,785.16 L 1018.29,798.12 L 1016.95,810.17 L 1015.46,821.46 L 1013.83,832.08 L 1012.04,842.12 L 1010.12,851.63 L 1008.04,860.66 L 1005.81,869.27 L 1003.43,877.48 L 1000.90,885.33 L 998.22,892.83 L 995.37,900.02 L 992.37,906.92 L 989.21,913.53 L 985.88,919.87 L 982.38,925.96 L 978.72,931.81 L 974.88,937.42 L 970.87,942.81 L 966.67,947.99 L 962.29,952.96 L 957.72,957.72 L 952.96,962.29 L 947.99,966.67 L 942.81,970.87 L 937.42,974.88 L 931.81,978.72 L 925.96,982.38 L 919.87,985.88 L 913.53,989.21 L 906.92,992.37 L 900.02,995.37 L 892.83,998.22 L 885.33,1000.90 L 877.48,1003.43 L 869.27,1005.81 L 860.66,1008.04 L 851.63,1010.12 L 842.12,1012.04 L 832.08,1013.83 L 821.46,1015.46 L 810.17,1016.95 L 798.12,1018.29 L 785.16,1019.49 L 771.13,1020.55 L 755.78,1021.47 L 738.75,1022.24 L 719.47,1022.88 L 696.98,1023.37 L 669.32,1023.72 L 631.24,1023.93 L 512.00,1024.00 L 392.76,1023.93 L 354.68,1023.72 L 327.02,1023.37 L 304.53,1022.88 L 285.25,1022.24 L 268.22,1021.47 L 252.87,1020.55 L 238.84,1019.49 L 225.88,1018.29 L 213.83,1016.95 L 202.54,1015.46 L 191.92,1013.83 L 181.88,1012.04 L 172.37,1010.12 L 163.34,1008.04 L 154.73,1005.81 L 146.52,1003.43 L 138.67,1000.90 L 131.17,998.22 L 123.98,995.37 L 117.08,992.37 L 110.47,989.21 L 104.13,985.88 L 98.04,982.38 L 92.19,978.72 L 86.58,974.88 L 81.19,970.87 L 76.01,966.67 L 71.04,962.29 L 66.28,957.72 L 61.71,952.96 L 57.33,947.99 L 53.13,942.81 L 49.12,937.42 L 45.28,931.81 L 41.62,925.96 L 38.12,919.87 L 34.79,913.53 L 31.63,906.92 L 28.63,900.02 L 25.78,892.83 L 23.10,885.33 L 20.57,877.48 L 18.19,869.27 L 15.96,860.66 L 13.88,851.63 L 11.96,842.12 L 10.17,832.08 L 8.54,821.46 L 7.05,810.17 L 5.71,798.12 L 4.51,785.16 L 3.45,771.13 L 2.53,755.78 L 1.76,738.75 L 1.12,719.47 L 0.63,696.98 L 0.28,669.32 L 0.07,631.24 L 0.00,512.00 L 0.07,392.76 L 0.28,354.68 L 0.63,327.02 L 1.12,304.53 L 1.76,285.25 L 2.53,268.22 L 3.45,252.87 L 4.51,238.84 L 5.71,225.88 L 7.05,213.83 L 8.54,202.54 L 10.17,191.92 L 11.96,181.88 L 13.88,172.37 L 15.96,163.34 L 18.19,154.73 L 20.57,146.52 L 23.10,138.67 L 25.78,131.17 L 28.63,123.98 L 31.63,117.08 L 34.79,110.47 L 38.12,104.13 L 41.62,98.04 L 45.28,92.19 L 49.12,86.58 L 53.13,81.19 L 57.33,76.01 L 61.71,71.04 L 66.28,66.28 L 71.04,61.71 L 76.01,57.33 L 81.19,53.13 L 86.58,49.12 L 92.19,45.28 L 98.04,41.62 L 104.13,38.12 L 110.47,34.79 L 117.08,31.63 L 123.98,28.63 L 131.17,25.78 L 138.67,23.10 L 146.52,20.57 L 154.73,18.19 L 163.34,15.96 L 172.37,13.88 L 181.88,11.96 L 191.92,10.17 L 202.54,8.54 L 213.83,7.05 L 225.88,5.71 L 238.84,4.51 L 252.87,3.45 L 268.22,2.53 L 285.25,1.76 L 304.53,1.12 L 327.02,0.63 L 354.68,0.28 L 392.76,0.07 L 512.00,0.00 L 631.24,0.07 L 669.32,0.28 L 696.98,0.63 L 719.47,1.12 L 738.75,1.76 L 755.78,2.53 L 771.13,3.45 L 785.16,4.51 L 798.12,5.71 L 810.17,7.05 L 821.46,8.54 L 832.08,10.17 L 842.12,11.96 L 851.63,13.88 L 860.66,15.96 L 869.27,18.19 L 877.48,20.57 L 885.33,23.10 L 892.83,25.78 L 900.02,28.63 L 906.92,31.63 L 913.53,34.79 L 919.87,38.12 L 925.96,41.62 L 931.81,45.28 L 937.42,49.12 L 942.81,53.13 L 947.99,57.33 L 952.96,61.71 L 957.72,66.28 L 962.29,71.04 L 966.67,76.01 L 970.87,81.19 L 974.88,86.58 L 978.72,92.19 L 982.38,98.04 L 985.88,104.13 L 989.21,110.47 L 992.37,117.08 L 995.37,123.98 L 998.22,131.17 L 1000.90,138.67 L 1003.43,146.52 L 1005.81,154.73 L 1008.04,163.34 L 1010.12,172.37 L 1012.04,181.88 L 1013.83,191.92 L 1015.46,202.54 L 1016.95,213.83 L 1018.29,225.88 L 1019.49,238.84 L 1020.55,252.87 L 1021.47,268.22 L 1022.24,285.25 L 1022.88,304.53 L 1023.37,327.02 L 1023.72,354.68 L 1023.93,392.76 L 1024.00,512.00 Z" fill="none" stroke="#ffffff" stroke-width="3" opacity="0.35"/><path d="M 1024.00,512.00 L 1023.93,631.24 L 1023.72,669.32 L 1023.37,696.98 L 1022.88,719.47 L 1022.24,738.75 L 1021.47,755.78 L 1020.55,771.13 L 1019.49,785.16 L 1018.29,798.12 L 1016.95,810.17 L 1015.46,821.46 L 1013.83,832.08 L 1012.04,842.12 L 1010.12,851.63 L 1008.04,860.66 L 1005.81,869.27 L 1003.43,877.48 L 1000.90,885.33 L 998.22,892.83 L 995.37,900.02 L 992.37,906.92 L 989.21,913.53 L 985.88,919.87 L 982.38,925.96 L 978.72,931.81 L 974.88,937.42 L 970.87,942.81 L 966.67,947.99 L 962.29,952.96 L 957.72,957.72 L 952.96,962.29 L 947.99,966.67 L 942.81,970.87 L 937.42,974.88 L 931.81,978.72 L 925.96,982.38 L 919.87,985.88 L 913.53,989.21 L 906.92,992.37 L 900.02,995.37 L 892.83,998.22 L 885.33,1000.90 L 877.48,1003.43 L 869.27,1005.81 L 860.66,1008.04 L 851.63,1010.12 L 842.12,1012.04 L 832.08,1013.83 L 821.46,1015.46 L 810.17,1016.95 L 798.12,1018.29 L 785.16,1019.49 L 771.13,1020.55 L 755.78,1021.47 L 738.75,1022.24 L 719.47,1022.88 L 696.98,1023.37 L 669.32,1023.72 L 631.24,1023.93 L 512.00,1024.00 L 392.76,1023.93 L 354.68,1023.72 L 327.02,1023.37 L 304.53,1022.88 L 285.25,1022.24 L 268.22,1021.47 L 252.87,1020.55 L 238.84,1019.49 L 225.88,1018.29 L 213.83,1016.95 L 202.54,1015.46 L 191.92,1013.83 L 181.88,1012.04 L 172.37,1010.12 L 163.34,1008.04 L 154.73,1005.81 L 146.52,1003.43 L 138.67,1000.90 L 131.17,998.22 L 123.98,995.37 L 117.08,992.37 L 110.47,989.21 L 104.13,985.88 L 98.04,982.38 L 92.19,978.72 L 86.58,974.88 L 81.19,970.87 L 76.01,966.67 L 71.04,962.29 L 66.28,957.72 L 61.71,952.96 L 57.33,947.99 L 53.13,942.81 L 49.12,937.42 L 45.28,931.81 L 41.62,925.96 L 38.12,919.87 L 34.79,913.53 L 31.63,906.92 L 28.63,900.02 L 25.78,892.83 L 23.10,885.33 L 20.57,877.48 L 18.19,869.27 L 15.96,860.66 L 13.88,851.63 L 11.96,842.12 L 10.17,832.08 L 8.54,821.46 L 7.05,810.17 L 5.71,798.12 L 4.51,785.16 L 3.45,771.13 L 2.53,755.78 L 1.76,738.75 L 1.12,719.47 L 0.63,696.98 L 0.28,669.32 L 0.07,631.24 L 0.00,512.00 L 0.07,392.76 L 0.28,354.68 L 0.63,327.02 L 1.12,304.53 L 1.76,285.25 L 2.53,268.22 L 3.45,252.87 L 4.51,238.84 L 5.71,225.88 L 7.05,213.83 L 8.54,202.54 L 10.17,191.92 L 11.96,181.88 L 13.88,172.37 L 15.96,163.34 L 18.19,154.73 L 20.57,146.52 L 23.10,138.67 L 25.78,131.17 L 28.63,123.98 L 31.63,117.08 L 34.79,110.47 L 38.12,104.13 L 41.62,98.04 L 45.28,92.19 L 49.12,86.58 L 53.13,81.19 L 57.33,76.01 L 61.71,71.04 L 66.28,66.28 L 71.04,61.71 L 76.01,57.33 L 81.19,53.13 L 86.58,49.12 L 92.19,45.28 L 98.04,41.62 L 104.13,38.12 L 110.47,34.79 L 117.08,31.63 L 123.98,28.63 L 131.17,25.78 L 138.67,23.10 L 146.52,20.57 L 154.73,18.19 L 163.34,15.96 L 172.37,13.88 L 181.88,11.96 L 191.92,10.17 L 202.54,8.54 L 213.83,7.05 L 225.88,5.71 L 238.84,4.51 L 252.87,3.45 L 268.22,2.53 L 285.25,1.76 L 304.53,1.12 L 327.02,0.63 L 354.68,0.28 L 392.76,0.07 L 512.00,0.00 L 631.24,0.07 L 669.32,0.28 L 696.98,0.63 L 719.47,1.12 L 738.75,1.76 L 755.78,2.53 L 771.13,3.45 L 785.16,4.51 L 798.12,5.71 L 810.17,7.05 L 821.46,8.54 L 832.08,10.17 L 842.12,11.96 L 851.63,13.88 L 860.66,15.96 L 869.27,18.19 L 877.48,20.57 L 885.33,23.10 L 892.83,25.78 L 900.02,28.63 L 906.92,31.63 L 913.53,34.79 L 919.87,38.12 L 925.96,41.62 L 931.81,45.28 L 937.42,49.12 L 942.81,53.13 L 947.99,57.33 L 952.96,61.71 L 957.72,66.28 L 962.29,71.04 L 966.67,76.01 L 970.87,81.19 L 974.88,86.58 L 978.72,92.19 L 982.38,98.04 L 985.88,104.13 L 989.21,110.47 L 992.37,117.08 L 995.37,123.98 L 998.22,131.17 L 1000.90,138.67 L 1003.43,146.52 L 1005.81,154.73 L 1008.04,163.34 L 1010.12,172.37 L 1012.04,181.88 L 1013.83,191.92 L 1015.46,202.54 L 1016.95,213.83 L 1018.29,225.88 L 1019.49,238.84 L 1020.55,252.87 L 1021.47,268.22 L 1022.24,285.25 L 1022.88,304.53 L 1023.37,327.02 L 1023.72,354.68 L 1023.93,392.76 L 1024.00,512.00 Z" fill="none" stroke="#000000" stroke-width="2" opacity="0.08"/></g></svg>